<svg width="103" height="122" viewBox="0 0 103 122" version="1.1" xmlns="http://www.w3.org/2000/svg" xmlns:xlink="http://www.w3.org/1999/xlink">
<g id="Canvas" fill="none">
<g id="glp_logo" clip-path="url(#clip0)">
<g id="Group">
<g id="Vector">
<path d="M 30.4002 50.8C 30.4002 68.5 25.1002 71.5 15.3002 71.5C 6.40021 71.5 0.700205 66.4 0.700205 57.2L 0.700205 55.8L 9.60021 55.8C 9.40021 59.3 10.9002 63.3 15.5002 63.3C 21.7002 63.3 21.1002 57.3 21.1002 52.8L 21.1002 44.6L 20.9002 44.6C 19.6002 48.6 16.6002 51.5 12.1002 51.3C 0.300205 51.1 0.0002048 34.4 0.0002048 25.9C 0.0002048 17.9 -0.199796 7.62939e-07 11.9002 7.62939e-07C 16.8002 7.62939e-07 19.0002 2.7 20.9002 6.7L 21.1002 6.5L 21.1002 0.8L 30.4002 0.8L 30.4002 50.8ZM 15.2002 8.2C 8.8002 8.2 9.4002 21.7 9.4002 25.3C 9.4002 29 8.80021 42.9 15.5002 42.9C 22.2002 42.9 21.2002 29.8 21.2002 25.8C 21.2002 21.8 21.2002 8.2 15.2002 8.2Z" transform="translate(0 50.2049)" fill="black"/>
</g>
<g id="Vector_2">
<path d="M 9.2 81.5L 7.62939e-07 81.5L 7.62939e-07 3.8147e-07L 9.2 3.8147e-07L 9.2 81.5L 9.2 81.5Z" transform="translate(38.7002 19.1049)" fill="black"/>
</g>
<g id="Vector_3">
<path d="M 0 0.8L 9.2 0.8L 9.2 7.2L 9.4 7.2C 11.3 2.9 13.2 7.62939e-07 18.5 7.62939e-07C 30 7.62939e-07 30.2 18.2 30.2 26.2C 30.2 34.4 29.9 51.1 18.2 51.1C 13.5 51.1 11.2 48.6 9.4 44.8L 9.2 44.8L 9.2 71.1L 0 71.1L 0 0.8ZM 14.7 8.2C 8.5 8.3 8.9 21.6 8.9 25.6C 8.9 29.5 8.5 42.9 14.7 42.9C 21.6 42.9 20.8 29.6 20.8 25.6C 20.8 21.6 21.6 8.3 14.7 8.2Z" transform="translate(56.5002 50.2049)" fill="black"/>
</g>
<g id="Group_2">
<g id="Group_3">
<g id="Vector_4">
<path d="M 49.5 0.404861C 46.9 0.404861 45.7 0.00486093 42.6 0.00486093C 32.8 -0.0951391 22.6 1.30486 17.1 8.20486C 9.9 17.2049 7.5 34.1049 -1.52588e-06 38.9049C 5 37.5049 8 32.3049 17 31.4049C 23.7 30.8049 30.7 31.6049 36.5 27.2049C 42.5 22.7049 45.4 14.6049 46.8 7.50486C 47.2 4.60486 47.7 2.70486 49.5 0.404861Z" transform="translate(53.1002 0)" fill="#A1CD3A"/>
</g>
</g>
<g id="Group_4">
<g id="Vector_5">
<path d="M 46.2153 -1.19209e-08C 46.2153 -1.19209e-08 44.6153 0.1 38.7153 4.2C 38.7153 4.2 31.5153 9.2 23.9153 15.4C 17.8153 20.3 2.91533 33.6 2.91533 33.6C 1.61533 34.8 -0.18467 36.2 0.0153297 36.4C 0.11533 36.5 1.71533 35.1 1.81533 35C 1.81533 35 17.3153 22.6 25.1153 16.4C 28.9153 13.3 35.9153 7.3 40.3153 4C 44.0153 1.2 46.2153 -1.19209e-08 46.2153 -1.19209e-08Z" transform="translate(55.8849 0.704865)" fill="white"/>
</g>
</g>
</g>
</g>
</g>
</g>
<defs>

<clipPath id="clip0">
<rect width="103" height="122" fill="white"/>
</clipPath>

</defs>
</svg>

