<?xml version="1.0" encoding="UTF-8" standalone="no"?>
<!-- Created with Inkscape (http://www.inkscape.org/) -->

<svg
   version="1.1"
   id="svg253"
   width="193.08"
   height="97.173332"
   viewBox="0 0 193.08 97.173332"
   sodipodi:docname="glp_logo.svg"
   inkscape:version="1.2.2 (b0a8486541, 2022-12-01)"
   xmlns:inkscape="http://www.inkscape.org/namespaces/inkscape"
   xmlns:sodipodi="http://sodipodi.sourceforge.net/DTD/sodipodi-0.dtd"
   xmlns="http://www.w3.org/2000/svg"
   xmlns:svg="http://www.w3.org/2000/svg">
  <defs
     id="defs257" />
  <sodipodi:namedview
     id="namedview255"
     pagecolor="#ffffff"
     bordercolor="#000000"
     borderopacity="0.25"
     inkscape:showpageshadow="2"
     inkscape:pageopacity="0.0"
     inkscape:pagecheckerboard="0"
     inkscape:deskcolor="#d1d1d1"
     showgrid="false"
     inkscape:zoom="7.4580483"
     inkscape:cx="96.540002"
     inkscape:cy="48.672251"
     inkscape:window-width="1720"
     inkscape:window-height="1371"
     inkscape:window-x="20"
     inkscape:window-y="20"
     inkscape:window-maximized="0"
     inkscape:current-layer="g261">
    <inkscape:page
       x="0"
       y="0"
       id="page259"
       width="193.08"
       height="97.173332" />
  </sodipodi:namedview>
  <g
     id="g261"
     inkscape:groupmode="layer"
     inkscape:label="Page 1"
     transform="matrix(1.3333333,0,0,-1.3333333,0,97.173333)">
    <g
       id="g263"
       transform="scale(0.1)">
      <path
         d="M 6.21094,251.723 C 33.1719,389.766 133.977,481.578 261.746,481.578 c 103.367,0 168.856,-43.652 182.34,-126.48 L 343.93,344.188 c -15.41,33.382 -43.664,50.074 -86.68,50.074 -75.762,0 -133.547,-59.707 -152.164,-156.657 -16.6954,-90.527 18.617,-146.3862 91.812,-146.3862 67.415,0 114.922,35.9452 133.543,105.2972 H 218.727 l 14.121,78.32 h 214.449 c -1.281,-16.043 -3.852,-34.02 -7.063,-50.723 C 412.625,86.0742 321.453,4.53906 188.547,4.53906 51.1484,4.53906 -22.6875,102.773 6.21094,251.723"
         style="fill:#040606;fill-opacity:1;fill-rule:nonzero;stroke:none"
         id="path265" />
      <path
         d="m 571.859,474.52 h 101.45 L 593.691,100.203 H 765.762 L 746.5,9.67578 H 472.984 L 571.859,474.52"
         style="fill:#040606;fill-opacity:1;fill-rule:nonzero;stroke:none"
         id="path267" />
      <path
         d="m 1003.96,221.551 c 70.63,0 116.22,21.191 129.7,83.469 12.84,60.347 -23.12,80.898 -87.96,80.898 H 991.762 L 957.094,221.551 Z M 908.293,474.52 h 129.047 c 152.81,0 223.44,-49.434 195.83,-179.782 C 1207.49,172.113 1122.74,131.023 971.215,131.023 H 937.828 L 910.867,9.67578 H 809.418 L 908.293,474.52"
         style="fill:#040606;fill-opacity:1;fill-rule:nonzero;stroke:none"
         id="path269" />
      <path
         d="M 1448.11,108.887 C 1448.11,48.75 1399.36,0 1339.22,0 c -60.14,0 -108.89,48.75 -108.89,108.887 0,60.136 48.75,108.886 108.89,108.886 60.14,0 108.89,-48.75 108.89,-108.886"
         style="fill:#4aa2df;fill-opacity:1;fill-rule:nonzero;stroke:none"
         id="path271" />
      <path
         d="m 499.422,581.176 -14.27,17.211 125.446,91.726 2.121,-2.55 z m 37.058,147.582 c -54.882,0 -99.378,-44.492 -99.378,-99.379 0,-20.953 6.523,-40.367 17.593,-56.395 l -56.687,-47.039 14.14,-17.039 57.133,47.41 C 486.98,540.027 510.531,530 536.48,530 c 47.219,0 86.661,32.961 96.786,77.105 l 25.964,121.653 c 0,0 -112.343,0 -122.75,0"
         style="fill:#84ce28;fill-opacity:1;fill-rule:nonzero;stroke:none"
         id="path273" />
    </g>
  </g>
</svg>
